<?xml version="1.0" encoding="UTF-8"?>
<svg xmlns="http://www.w3.org/2000/svg" xmlns:xlink="http://www.w3.org/1999/xlink" width="500pt" height="150pt" viewBox="0 0 500 150" version="1.1">
<g id="surface157">
<rect x="0" y="0" width="500" height="150" style="fill:rgb(100%,100%,100%);fill-opacity:1;stroke:none;"/>
<path style="fill:none;stroke-width:2;stroke-linecap:butt;stroke-linejoin:miter;stroke:rgb(0%,0%,100%);stroke-opacity:1;stroke-miterlimit:10;" d="M 250 100 C 260 100 270 100 280 100 C 283.332031 100 286.667969 100 290 100 C 293.332031 100 296.667969 100 300 100 C 316.667969 100 333.332031 100 350 84.375 C 360 75 370 60 380 69 C 386.667969 75 393.332031 91.667969 400 97.222656 C 403.332031 100 406.667969 100 410 100 C 413.332031 100 416.667969 100 420 100 C 430 100 440 100 450 100 "/>
</g>
</svg>
