<?xml version="1.0" encoding="UTF-8"?>
<svg xmlns="http://www.w3.org/2000/svg" xmlns:xlink="http://www.w3.org/1999/xlink" width="500pt" height="500pt" viewBox="0 0 500 500" version="1.1">
<g id="surface141">
<rect x="0" y="0" width="500" height="500" style="fill:rgb(100%,100%,100%);fill-opacity:1;stroke:none;"/>
<path style="fill:none;stroke-width:2;stroke-linecap:butt;stroke-linejoin:miter;stroke:rgb(0%,0%,100%);stroke-opacity:1;stroke-miterlimit:10;" d="M 250 250 C 250 250 250 250 185.09375 346.039062 C 163.460938 378.050781 134.613281 420.734375 130.242188 436.621094 C 125.875 452.507812 145.988281 441.597656 165.660156 433.855469 C 264.019531 395.148438 351.425781 435.644531 391.765625 394.414062 C 415.972656 369.675781 423.234375 315.519531 397.605469 244.1875 C 380.519531 196.632812 348.8125 141.445312 266.949219 136.492188 C 226.019531 134.015625 172.550781 144.101562 158.90625 158.722656 C 145.261719 173.347656 171.449219 192.511719 191.085938 206.882812 C 250 250 250 250 250 250 "/>
</g>
</svg>
