<?xml version="1.0" encoding="UTF-8"?>
<svg xmlns="http://www.w3.org/2000/svg" xmlns:xlink="http://www.w3.org/1999/xlink" width="500pt" height="150pt" viewBox="0 0 500 150" version="1.1">
<g id="surface169">
<rect x="0" y="0" width="500" height="150" style="fill:rgb(100%,100%,100%);fill-opacity:1;stroke:none;"/>
<path style="fill:none;stroke-width:2;stroke-linecap:butt;stroke-linejoin:miter;stroke:rgb(0%,0%,100%);stroke-opacity:1;stroke-miterlimit:10;" d="M 250 100 C 260 100 270 100 280 77.5 C 283.332031 70 286.667969 60 290 55 C 293.332031 50 296.667969 50 300 50 C 316.667969 50 333.332031 50 350 50 C 360 50 370 50 380 50 C 386.667969 50 393.332031 50 400 50 C 403.332031 50 406.667969 50 410 55 C 413.332031 60 416.667969 70 420 77.5 C 430 100 440 100 450 100 "/>
</g>
</svg>
