<?xml version="1.0" encoding="UTF-8"?>
<svg xmlns="http://www.w3.org/2000/svg" xmlns:xlink="http://www.w3.org/1999/xlink" width="300pt" height="150pt" viewBox="0 0 300 150" version="1.1">
<g id="surface177">
<rect x="0" y="0" width="300" height="150" style="fill:rgb(100%,100%,100%);fill-opacity:1;stroke:none;"/>
<path style="fill:none;stroke-width:2;stroke-linecap:butt;stroke-linejoin:miter;stroke:rgb(0%,0%,100%);stroke-opacity:1;stroke-miterlimit:10;" d="M 50 100 C 53.332031 100 56.667969 100 60 96.667969 C 66.667969 90 73.332031 70 80 70 C 86.667969 70 93.332031 90 100 96.667969 C 103.332031 100 106.667969 100 110 100 C 113.332031 100 116.667969 100 120 100 C 130 100 140 100 150 100 C 153.332031 100 156.667969 100 160 100 C 166.667969 100 173.332031 100 180 100 C 186.667969 100 193.332031 100 200 100 C 203.332031 100 206.667969 100 210 100 C 213.332031 100 216.667969 100 220 100 C 230 100 240 100 250 100 "/>
</g>
</svg>
